<svg width="37" height="36" viewBox="0 0 37 36" fill="none" xmlns="http://www.w3.org/2000/svg">
<path d="M9.5 28.5C9.5 30.15 10.85 31.5 12.5 31.5H24.5C26.15 31.5 27.5 30.15 27.5 28.5V13.5C27.5 11.85 26.15 10.5 24.5 10.5H12.5C10.85 10.5 9.5 11.85 9.5 13.5V28.5ZM27.5 6H23.75L22.685 4.935C22.415 4.665 22.025 4.5 21.635 4.5H15.365C14.975 4.5 14.585 4.665 14.315 4.935L13.25 6H9.5C8.675 6 8 6.675 8 7.5C8 8.325 8.675 9 9.5 9H27.5C28.325 9 29 8.325 29 7.5C29 6.675 28.325 6 27.5 6Z" fill="#404040"/>
</svg>
