<svg width="46" height="25" viewBox="0 0 46 25" fill="none" xmlns="http://www.w3.org/2000/svg">
<path d="M0.5 2.5C0.5 1.39543 1.39543 0.5 2.5 0.5H43.5C44.6046 0.5 45.5 1.39543 45.5 2.5C45.5 3.60457 44.6046 4.5 43.5 4.5H2.5C1.39543 4.5 0.5 3.60457 0.5 2.5Z" fill="black" stroke="black"/>
<path d="M0.5 12.5C0.5 11.3954 1.39543 10.5 2.5 10.5H43.5C44.6046 10.5 45.5 11.3954 45.5 12.5C45.5 13.6046 44.6046 14.5 43.5 14.5H2.5C1.39543 14.5 0.5 13.6046 0.5 12.5Z" fill="black" stroke="black"/>
<path d="M0.5 22.5C0.5 21.3954 1.39543 20.5 2.5 20.5H43.5C44.6046 20.5 45.5 21.3954 45.5 22.5C45.5 23.6046 44.6046 24.5 43.5 24.5H2.5C1.39543 24.5 0.5 23.6046 0.5 22.5Z" fill="black" stroke="black"/>
</svg>