<svg width="60" height="60" viewBox="0 0 42 42" fill="none" xmlns="http://www.w3.org/2000/svg">
<path d="M7.10133 31.6261H34.7656C35.7165 31.6261 36.4946 30.848 36.4946 29.8971C36.4946 28.9461 35.7165 28.1681 34.7656 28.1681H7.10133C6.15037 28.1681 5.37231 28.9461 5.37231 29.8971C5.37231 30.848 6.15037 31.6261 7.10133 31.6261ZM7.10133 22.981H34.7656C35.7165 22.981 36.4946 22.203 36.4946 21.252C36.4946 20.3011 35.7165 19.523 34.7656 19.523H7.10133C6.15037 19.523 5.37231 20.3011 5.37231 21.252C5.37231 22.203 6.15037 22.981 7.10133 22.981ZM5.37231 12.6069C5.37231 13.5579 6.15037 14.336 7.10133 14.336H34.7656C35.7165 14.336 36.4946 13.5579 36.4946 12.6069C36.4946 11.656 35.7165 10.8779 34.7656 10.8779H7.10133C6.15037 10.8779 5.37231 11.656 5.37231 12.6069Z" fill="#404040"/>
</svg>