<svg width="37" height="35" viewBox="0 0 37 35" fill="none" xmlns="http://www.w3.org/2000/svg">
<path d="M23.8968 20.2927H22.6789L22.2472 19.9102C24.0972 17.9269 25.053 15.221 24.5289 12.3452C23.8043 8.40688 20.2276 5.26188 15.911 4.78022C9.38971 4.04355 3.90138 9.08688 4.70305 15.0794C5.22721 19.046 8.64971 22.3327 12.9355 22.9985C16.0651 23.4802 19.0097 22.6019 21.168 20.9019L21.5843 21.2985V22.4177L28.1364 28.4385C28.7685 29.0194 29.8014 29.0194 30.4335 28.4385C31.0655 27.8577 31.0655 26.9085 30.4335 26.3277L23.8968 20.2927ZM14.6468 20.2927C10.808 20.2927 7.7093 17.4452 7.7093 13.9177C7.7093 10.3902 10.808 7.54272 14.6468 7.54272C18.4855 7.54272 21.5843 10.3902 21.5843 13.9177C21.5843 17.4452 18.4855 20.2927 14.6468 20.2927Z" fill="#404040"/>
</svg>